<mxfile host="app.diagrams.net" agent="Mozilla/5.0 (Windows NT 10.0; Win64; x64) AppleWebKit/537.36 (KHTML, like Gecko) Chrome/134.0.0.0 Safari/537.36 Edg/134.0.0.0" version="26.1.0">
  <diagram name="第 1 页" id="eYc_6xzFWpGvWW025s1J">
    <mxGraphModel dx="1372" dy="906" grid="1" gridSize="10" guides="1" tooltips="1" connect="1" arrows="1" fold="1" page="1" pageScale="1" pageWidth="827" pageHeight="1169" math="0" shadow="0">
      <root>
        <mxCell id="0" />
        <mxCell id="1" parent="0" />
        <mxCell id="yZwEZ3kuqq7wND79LIi2-10" style="edgeStyle=orthogonalEdgeStyle;rounded=0;orthogonalLoop=1;jettySize=auto;html=1;" edge="1" parent="1" source="yZwEZ3kuqq7wND79LIi2-1" target="yZwEZ3kuqq7wND79LIi2-4">
          <mxGeometry relative="1" as="geometry" />
        </mxCell>
        <mxCell id="yZwEZ3kuqq7wND79LIi2-1" value="新建宿舍评比任务" style="rounded=0;whiteSpace=wrap;html=1;" vertex="1" parent="1">
          <mxGeometry x="255" y="318" width="120" height="60" as="geometry" />
        </mxCell>
        <mxCell id="yZwEZ3kuqq7wND79LIi2-9" style="edgeStyle=orthogonalEdgeStyle;rounded=0;orthogonalLoop=1;jettySize=auto;html=1;" edge="1" parent="1" source="yZwEZ3kuqq7wND79LIi2-2" target="yZwEZ3kuqq7wND79LIi2-1">
          <mxGeometry relative="1" as="geometry" />
        </mxCell>
        <mxCell id="yZwEZ3kuqq7wND79LIi2-2" value="开始" style="rounded=1;whiteSpace=wrap;html=1;arcSize=50;" vertex="1" parent="1">
          <mxGeometry x="260" y="230" width="110" height="40" as="geometry" />
        </mxCell>
        <mxCell id="yZwEZ3kuqq7wND79LIi2-3" value="结束" style="rounded=1;whiteSpace=wrap;html=1;arcSize=50;" vertex="1" parent="1">
          <mxGeometry x="260" y="820" width="110" height="40" as="geometry" />
        </mxCell>
        <mxCell id="yZwEZ3kuqq7wND79LIi2-11" style="edgeStyle=orthogonalEdgeStyle;rounded=0;orthogonalLoop=1;jettySize=auto;html=1;" edge="1" parent="1" source="yZwEZ3kuqq7wND79LIi2-4" target="yZwEZ3kuqq7wND79LIi2-5">
          <mxGeometry relative="1" as="geometry" />
        </mxCell>
        <mxCell id="yZwEZ3kuqq7wND79LIi2-4" value="选择参评宿舍" style="rounded=0;whiteSpace=wrap;html=1;" vertex="1" parent="1">
          <mxGeometry x="255" y="417" width="120" height="60" as="geometry" />
        </mxCell>
        <mxCell id="yZwEZ3kuqq7wND79LIi2-12" style="edgeStyle=orthogonalEdgeStyle;rounded=0;orthogonalLoop=1;jettySize=auto;html=1;entryX=0.5;entryY=0;entryDx=0;entryDy=0;" edge="1" parent="1" source="yZwEZ3kuqq7wND79LIi2-5" target="yZwEZ3kuqq7wND79LIi2-7">
          <mxGeometry relative="1" as="geometry" />
        </mxCell>
        <mxCell id="yZwEZ3kuqq7wND79LIi2-5" value="选择评分人" style="rounded=0;whiteSpace=wrap;html=1;" vertex="1" parent="1">
          <mxGeometry x="255" y="515" width="120" height="60" as="geometry" />
        </mxCell>
        <mxCell id="yZwEZ3kuqq7wND79LIi2-13" style="edgeStyle=orthogonalEdgeStyle;rounded=0;orthogonalLoop=1;jettySize=auto;html=1;" edge="1" parent="1" source="yZwEZ3kuqq7wND79LIi2-7" target="yZwEZ3kuqq7wND79LIi2-8">
          <mxGeometry relative="1" as="geometry" />
        </mxCell>
        <mxCell id="yZwEZ3kuqq7wND79LIi2-7" value="评分人进行评分" style="rounded=0;whiteSpace=wrap;html=1;" vertex="1" parent="1">
          <mxGeometry x="255" y="613" width="120" height="60" as="geometry" />
        </mxCell>
        <mxCell id="yZwEZ3kuqq7wND79LIi2-14" style="edgeStyle=orthogonalEdgeStyle;rounded=0;orthogonalLoop=1;jettySize=auto;html=1;" edge="1" parent="1" source="yZwEZ3kuqq7wND79LIi2-8" target="yZwEZ3kuqq7wND79LIi2-3">
          <mxGeometry relative="1" as="geometry" />
        </mxCell>
        <mxCell id="yZwEZ3kuqq7wND79LIi2-8" value="汇总最终排名" style="rounded=0;whiteSpace=wrap;html=1;" vertex="1" parent="1">
          <mxGeometry x="255" y="712" width="120" height="60" as="geometry" />
        </mxCell>
      </root>
    </mxGraphModel>
  </diagram>
</mxfile>
